[Header]
FileType HTR
DataType HTRS
FileVersion 1
NumSegments 64
NumFrames 3
DataFrameRate 30
EulerRotationOrder ZYX
CalibrationUnits mm
RotationUnits Degrees
GlobalAxisofGravity Y
BoneLengthAxis Y
ScaleFactor 1.0
[SegmentNames&Hierarchy]
Hips	GLOBAL
Spine	Hips
Spine1	Spine
Spine2	Spine1
Neck	Spine2
Head	Neck
LeftEye	Head
RightEye	Head
LeftShoulder	Spine2
LeftArm	LeftShoulder
LeftForeArm	LeftArm
LeftHand	LeftForeArm
LeftHandThumb1	LeftHand
LeftHandThumb2	LeftHandThumb1
LeftHandThumb3	LeftHandThumb2
LeftHandThumb4	LeftHandThumb3
LeftHandIndex1	LeftHand
LeftHandIndex2	LeftHandIndex1
LeftHandIndex3	LeftHandIndex2
LeftHandIndex4	LeftHandIndex3
LeftHandMiddle1	LeftHand
LeftHandMiddle2	LeftHandMiddle1
LeftHandMiddle3	LeftHandMiddle2
LeftHandMiddle4	LeftHandMiddle3
LeftHandRing1	LeftHand
LeftHandRing2	LeftHandRing1
LeftHandRing3	LeftHandRing2
LeftHandRing4	LeftHandRing3
LeftHandPinky1	LeftHand
LeftHandPinky2	LeftHandPinky1
LeftHandPinky3	LeftHandPinky2
LeftHandPinky4	LeftHandPinky3
RightShoulder	Spine2
RightArm	RightShoulder
RightForeArm	RightArm
RightHand	RightForeArm
RightHandPinky1	RightHand
RightHandPinky2	RightHandPinky1
RightHandPinky3	RightHandPinky2
RightHandPinky4	RightHandPinky3
RightHandRing1	RightHand
RightHandRing2	RightHandRing1
RightHandRing3	RightHandRing2
RightHandRing4	RightHandRing3
RightHandMiddle1	RightHand
RightHandMiddle2	RightHandMiddle1
RightHandMiddle3	RightHandMiddle2
RightHandMiddle4	RightHandMiddle3
RightHandIndex1	RightHand
RightHandIndex2	RightHandIndex1
RightHandIndex3	RightHandIndex2
RightHandIndex4	RightHandIndex3
RightHandThumb1	RightHand
RightHandThumb2	RightHandThumb1
RightHandThumb3	RightHandThumb2
RightHandThumb4	RightHandThumb3
LeftUpLeg	Hips
LeftLeg	LeftUpLeg
LeftFoot	LeftLeg
LeftToeBase	LeftFoot
RightUpLeg	Hips
RightLeg	RightUpLeg
RightFoot	RightLeg
RightToeBase	RightFoot
[BasePosition]
Hips	0	0	0	0	0	0	1
Spine	0	0	0	0	0	0	1
Spine1	0	0	0	0	0	0	1
Spine2	0	0	0	0	0	0	1
Neck	0	0	0	0	0	0	1
Head	0	0	0	0	0	0	1
LeftEye	0	0	0	0	0	0	1
RightEye	0	0	0	0	0	0	1
LeftShoulder	0	0	0	0	0	0	1
LeftArm	0	0	0	0	0	0	1
LeftForeArm	0	0	0	0	0	0	1
LeftHand	0	0	0	0	0	0	1
LeftHandThumb1	0	0	0	0	0	0	1
LeftHandThumb2	0	0	0	0	0	0	1
LeftHandThumb3	0	0	0	0	0	0	1
LeftHandThumb4	0	0	0	0	0	0	1
LeftHandIndex1	0	0	0	0	0	0	1
LeftHandIndex2	0	0	0	0	0	0	1
LeftHandIndex3	0	0	0	0	0	0	1
LeftHandIndex4	0	0	0	0	0	0	1
LeftHandMiddle1	0	0	0	0	0	0	1
LeftHandMiddle2	0	0	0	0	0	0	1
LeftHandMiddle3	0	0	0	0	0	0	1
LeftHandMiddle4	0	0	0	0	0	0	1
LeftHandRing1	0	0	0	0	0	0	1
LeftHandRing2	0	0	0	0	0	0	1
LeftHandRing3	0	0	0	0	0	0	1
LeftHandRing4	0	0	0	0	0	0	1
LeftHandPinky1	0	0	0	0	0	0	1
LeftHandPinky2	0	0	0	0	0	0	1
LeftHandPinky3	0	0	0	0	0	0	1
LeftHandPinky4	0	0	0	0	0	0	1
RightShoulder	0	0	0	0	0	0	1
RightArm	0	0	0	0	0	0	1
RightForeArm	0	0	0	0	0	0	1
RightHand	0	0	0	0	0	0	1
RightHandPinky1	0	0	0	0	0	0	1
RightHandPinky2	0	0	0	0	0	0	1
RightHandPinky3	0	0	0	0	0	0	1
RightHandPinky4	0	0	0	0	0	0	1
RightHandRing1	0	0	0	0	0	0	1
RightHandRing2	0	0	0	0	0	0	1
RightHandRing3	0	0	0	0	0	0	1
RightHandRing4	0	0	0	0	0	0	1
RightHandMiddle1	0	0	0	0	0	0	1
RightHandMiddle2	0	0	0	0	0	0	1
RightHandMiddle3	0	0	0	0	0	0	1
RightHandMiddle4	0	0	0	0	0	0	1
RightHandIndex1	0	0	0	0	0	0	1
RightHandIndex2	0	0	0	0	0	0	1
RightHandIndex3	0	0	0	0	0	0	1
RightHandIndex4	0	0	0	0	0	0	1
RightHandThumb1	0	0	0	0	0	0	1
RightHandThumb2	0	0	0	0	0	0	1
RightHandThumb3	0	0	0	0	0	0	1
RightHandThumb4	0	0	0	0	0	0	1
LeftUpLeg	0	0	0	0	0	0	1
LeftLeg	0	0	0	0	0	0	1
LeftFoot	0	0	0	0	0	0	1
LeftToeBase	0	0	0	0	0	0	1
RightUpLeg	0	0	0	0	0	0	1
RightLeg	0	0	0	0	0	0	1
RightFoot	0	0	0	0	0	0	1
RightToeBase	0	0	0	0	0	0	1
[Hips]
9	26.16884613	960.0231934	464.487854	2.423858881	-2.851160526	-2.038523197	1.0
10	33.45752335	958.1101074	531.0635986	1.730516315	-2.242539406	-1.553535938	1.0
11	40.51807022	955.4002686	594.0634155	1.116326332	-1.637136221	-1.396971941	1.0
[Spine]
9	0	101.8159943	1.315000057	3.754081249	4.272022247	0.9454223514	1.0
10	0	101.8159943	1.315000057	3.422465086	4.079064369	-0.2470367998	1.0
11	0	101.8159943	1.315000057	3.6094203	4.026425838	-0.7185438275	1.0
[Spine1]
9	0	100.8349991	-10.00800037	1.869751573	2.610875845	-1.298766017	1.0
10	0	100.8349991	-10.00800037	1.516104102	2.481021881	-0.8659899831	1.0
11	0	100.8349991	-10.00800037	1.262812972	2.002436876	-0.6582480669	1.0
[Spine2]
9	0	91	-13.73399925	1.827506185	2.602989912	-1.329381824	1.0
10	0	91	-13.73399925	1.491225719	2.50486517	-0.8566294909	1.0
11	0	91	-13.73399925	1.233926058	2.045433283	-0.6153978705	1.0
[Neck]
9	0	166.7169952	-25.16200066	-0.507145226	-0.4593040049	-0.09772657603	1.0
10	0	166.7169952	-25.16200066	-0.213054359	-0.3220666647	-1.337917328	1.0
11	0	166.7169952	-25.16200066	-0.180820182	-0.06683281809	-2.2396667	1.0
[Head]
9	0	96.17900085	16.84999847	-5.355643272	-1.260577321	-0.8582382798	1.0
10	0	96.17900085	16.84999847	-4.110059261	-1.809112787	0.5942656994	1.0
11	0	96.17900085	16.84999847	-3.142733335	-1.970994115	1.978919387	1.0
[LeftEye]
9	30.6760006	64.09500122	92.83599854	0	0	0	1.0
10	30.6760006	64.09500122	92.83599854	0	0	0	1.0
11	30.6760006	64.09500122	92.83599854	0	0	0	1.0
[RightEye]
9	-30.6760006	64.09500122	92.83499908	0	0	0	1.0
10	-30.6760006	64.09500122	92.83499908	0	0	0	1.0
11	-30.6760006	64.09500122	92.83499908	0	0	0	1.0
[LeftShoulder]
9	45.70400238	109.4599991	-26.28000069	1.831766963	-5.253901482	-13.99616814	1.0
10	45.70400238	109.4599991	-26.28000069	1.879791737	-5.403907299	-14.19581032	1.0
11	45.70400238	109.4599991	-26.28000069	2.020861864	-5.934083939	-14.53781319	1.0
[LeftArm]
9	105.923996	-5.24600029	-22.32099915	14.54343414	11.87345886	-64.65607452	1.0
10	105.923996	-5.24600029	-22.32099915	15.960042	10.71257114	-63.1033783	1.0
11	105.923996	-5.24600029	-22.32099915	17.33617783	8.934619904	-61.23376846	1.0
[LeftForeArm]
9	278.414978	-0.0009999999311	0	-1.027193775e-06	-4.235933781	-0.0002039043175	1.0
10	278.414978	-0.0009999999311	0	-4.821100902e-06	-5.224585056	-0.0001927554113	1.0
11	278.414978	-0.0009999999311	0	4.845369403e-06	-6.746203899	-0.0002239751047	1.0
[LeftHand]
9	283.2879944	0	0	8.471678734	5.573851585	-14.95135975	1.0
10	283.2879944	0	0	9.18401432	7.121281147	-14.83530426	1.0
11	283.2879944	0	0	7.788047791	5.461248398	-15.16603184	1.0
[LeftHandThumb1]
9	24.6609993	-15.75	26.8239994	5.839803696	2.504242897	11.148386	1.0
10	24.6609993	-15.75	26.8239994	5.839803696	2.504242897	11.148386	1.0
11	24.6609993	-15.75	26.8239994	5.839803696	2.504242897	11.148386	1.0
[LeftHandThumb2]
9	32.29800034	-18.64699936	18.64699936	9.330083847	6.88761425	5.942831993	1.0
10	32.29800034	-18.64699936	18.64699936	9.241274834	8.006408691	5.958548546	1.0
11	32.29800034	-18.64699936	18.64699936	9.1366539	9.876673698	6.274604321	1.0
[LeftHandThumb3]
9	26.52600098	-15.31499958	15.31499958	-1.883769155	-10.33141899	21.10674095	1.0
10	26.52600098	-15.31499958	15.31499958	-1.63542676	-9.666189194	21.24225044	1.0
11	26.52600098	-15.31499958	15.31499958	-1.6266433	-9.570411682	21.53385544	1.0
[LeftHandThumb4]
9	19.54599953	-11.28499985	11.28499985	0	0	0	1.0
10	19.54599953	-11.28499985	11.28499985	0	0	0	1.0
11	19.54599953	-11.28499985	11.28499985	0	0	0	1.0
[LeftHandIndex1]
9	91.09299469	-5.170999527	22.60099792	-0.896656096	-1.356275439	-23.10055161	1.0
10	91.09299469	-5.170999527	22.60099792	-0.8792254925	-1.020600915	-23.42278099	1.0
11	91.09299469	-5.170999527	22.60099792	-0.7952275276	-0.432959646	-23.3886528	1.0
[LeftHandIndex2]
9	36.76399994	0	0	-0.2035968453	1.529080868	-15.16801262	1.0
10	36.76399994	0	0	-0.2021704018	1.523803592	-15.1144228	1.0
11	36.76399994	0	0	-0.1999210268	1.515454769	-15.02956104	1.0
[LeftHandIndex3]
9	28.83100128	0	0	-0.2036003768	1.529082417	-15.16799831	1.0
10	28.83100128	0	0	-0.2021693736	1.523803353	-15.11439514	1.0
11	28.83100128	0	0	-0.1999226063	1.515457511	-15.02955532	1.0
[LeftHandIndex4]
9	23.92700005	0	0	0	0	0	1.0
10	23.92700005	0	0	0	0	0	1.0
11	23.92700005	0	0	0	0	0	1.0
[LeftHandMiddle1]
9	95.33399963	0	0	-1.929307103	4.925727367	-30.28277588	1.0
10	95.33399963	0	0	-1.952257633	4.841751575	-30.54548645	1.0
11	95.33399963	0	0	-1.960074186	4.807644844	-30.63482857	1.0
[LeftHandMiddle2]
9	36.98199844	0	0	-0.125042066	1.202489376	-11.8731432	1.0
10	36.98199844	0	0	-0.1251237839	1.202895045	-11.87722874	1.0
11	36.98199844	0	0	-0.1247533783	1.201106191	-11.8594389	1.0
[LeftHandMiddle3]
9	29.50900078	0	0	-0.1702584326	1.400354385	-13.86384106	1.0
10	29.50900078	0	0	-0.1703606844	1.400755525	-13.86791229	1.0
11	29.50900078	0	0	-0.1699210852	1.398996949	-13.85011101	1.0
[LeftHandMiddle4]
9	28.3390007	0	0	0	0	0	1.0
10	28.3390007	0	0	0	0	0	1.0
11	28.3390007	0	0	0	0	0	1.0
[LeftHandRing1]
9	91.04499817	-0.4390000105	-18.65100098	-2.034225464	7.170547485	-31.50295258	1.0
10	91.04499817	-0.4390000105	-18.65100098	-2.046967268	7.067630291	-31.64353752	1.0
11	91.04499817	-0.4390000105	-18.65100098	-2.031662464	7.069000721	-31.47132492	1.0
[LeftHandRing2]
9	31.54000092	0	0	-0.3256755471	1.923427224	-19.21875572	1.0
10	31.54000092	0	0	-0.3247236013	1.920689225	-19.19018173	1.0
11	31.54000092	0	0	-0.3230879605	1.91601491	-19.14157677	1.0
[LeftHandRing3]
9	29.37700081	0	0	-0.3957153559	2.113531351	-21.2069664	1.0
10	29.37700081	0	0	-0.3946729302	2.110856771	-21.17880058	1.0
11	29.37700081	0	0	-0.3928858042	2.106238127	-21.13012314	1.0
[LeftHandRing4]
9	26.47500038	0	0	0	0	0	1.0
10	26.47500038	0	0	0	0	0	1.0
11	26.47500038	0	0	0	0	0	1.0
[LeftHandPinky1]
9	80.77799988	-4.887000084	-38.06099701	-2.594012737	7.556325912	-35.53206635	1.0
10	80.77799988	-4.887000084	-38.06099701	-2.51913619	6.680909634	-35.54418564	1.0
11	80.77799988	-4.887000084	-38.06099701	-2.421375751	5.574706554	-35.51004028	1.0
[LeftHandPinky2]
9	36	0	0	-0.2702456117	1.756452203	-17.49247932	1.0
10	36	0	0	-0.2675500512	1.747857928	-17.40401649	1.0
11	36	0	0	-0.2627363205	1.732429981	-17.24547386	1.0
[LeftHandPinky3]
9	21.14200211	0	0	-0.2702397704	1.756448984	-17.49248314	1.0
10	21.14200211	0	0	-0.2675352097	1.747839093	-17.40404129	1.0
11	21.14200211	0	0	-0.2627200782	1.732417703	-17.24549866	1.0
[LeftHandPinky4]
9	19.75699997	0	0	0	0	0	1.0
10	19.75699997	0	0	0	0	0	1.0
11	19.75699997	0	0	0	0	0	1.0
[RightShoulder]
9	-45.70000076	109.4620056	-26.28000069	2.143719196	7.161628246	13.09641838	1.0
10	-45.70000076	109.4620056	-26.28000069	2.057273149	6.671431541	13.22678185	1.0
11	-45.70000076	109.4620056	-26.28000069	2.037096977	6.431930542	13.53895473	1.0
[RightArm]
9	-105.9280014	-5.248000145	-22.32099915	23.55250168	25.22936058	42.12073517	1.0
10	-105.9280014	-5.248000145	-22.32099915	24.83764267	21.98804855	44.99885941	1.0
11	-105.9280014	-5.248000145	-22.32099915	25.55578041	17.92395973	47.86722946	1.0
[RightForeArm]
9	-278.414978	0	0	4.295880444e-06	29.17247581	1.424030961e-05	1.0
10	-278.414978	0	0	4.304076811e-06	26.24406433	9.155499356e-06	1.0
11	-278.414978	0	0	-4.946685294e-06	23.76913834	3.148699989e-06	1.0
[RightHand]
9	-283.2879944	0	0.0009999999311	2.335887909	4.684149265	2.872439384	1.0
10	-283.2879944	0	0.0009999999311	3.243085623	8.061059952	1.544495583	1.0
11	-283.2879944	0	0.0009999999311	4.487944603	10.75223923	0.8240351677	1.0
[RightHandPinky1]
9	-80.76699829	-4.885000229	-38.06000137	-2.094318867	-1.914457202	29.60762405	1.0
10	-80.76699829	-4.885000229	-38.06000137	-1.917523265	-2.593258858	28.86660957	1.0
11	-80.76699829	-4.885000229	-38.06000137	-1.880281448	-2.695015907	28.62627411	1.0
[RightHandPinky2]
9	-36	0	0.0009999999311	-0.5801418424	-2.246010065	28.98207283	1.0
10	-36	0	0.0009999999311	-0.573015511	-2.233091593	28.79958534	1.0
11	-36	0	0.0009999999311	-0.5673964024	-2.222839355	28.65512085	1.0
[RightHandPinky3]
9	-21.14200211	0	0	-0.1849090308	-1.296737909	16.22930336	1.0
10	-21.14200211	0	0	-0.1811495721	-1.283751249	16.06235504	1.0
11	-21.14200211	0	0	-0.177953884	-1.272712111	15.92014694	1.0
[RightHandPinky4]
9	-19.75699997	0	0	0	0	0	1.0
10	-19.75699997	0	0	0	0	0	1.0
11	-19.75699997	0	0	0	0	0	1.0
[RightHandRing1]
9	-91.03599548	-0.4390000105	-18.65100098	-1.354937077	-2.117958784	25.0309906	1.0
10	-91.03599548	-0.4390000105	-18.65100098	-1.265725851	-2.426338673	23.75142479	1.0
11	-91.03599548	-0.4390000105	-18.65100098	-1.229937673	-2.514158249	23.23078537	1.0
[RightHandRing2]
9	-31.54000092	0	0	-1.5064888	-3.419612408	47.54114532	1.0
10	-31.54000092	0	0	-1.504257798	-3.417568445	47.50371933	1.0
11	-31.54000092	0	0	-1.497797966	-3.411668301	47.39544296	1.0
[RightHandRing3]
9	-29.37700081	0	0	-0.3767562509	-1.831239939	23.25000763	1.0
10	-29.37700081	0	0	-0.3756172061	-1.828567266	23.21399879	1.0
11	-29.37700081	0	0	-0.3721857965	-1.820555687	23.1063385	1.0
[RightHandRing4]
9	-26.47500038	0	0	0	0	0	1.0
10	-26.47500038	0	0	0	0	0	1.0
11	-26.47500038	0	0	0	0	0	1.0
[RightHandMiddle1]
9	-95.32500458	0	0	-1.139192224	-0.1066274792	21.98898888	1.0
10	-95.32500458	0	0	-1.044763803	-0.1764926463	20.57100868	1.0
11	-95.32500458	0	0	-0.988437593	-0.2886829078	19.70251083	1.0
[RightHandMiddle2]
9	-36.98199844	0	0	-0.8657593131	-2.69793725	35.57740784	1.0
10	-36.98199844	0	0	-0.8566972613	-2.685232878	35.38447952	1.0
11	-36.98199844	0	0	-0.8466531634	-2.671061754	35.16958237	1.0
[RightHandMiddle3]
9	-29.50900078	0	0	-0.3020182848	-1.648524404	20.78726387	1.0
10	-29.50900078	0	0	-0.2965257168	-1.633980632	20.59499168	1.0
11	-29.50900078	0	0	-0.290451467	-1.61773181	20.38074493	1.0
[RightHandMiddle4]
9	-28.3390007	0	0.0009999999311	0	0	0	1.0
10	-28.3390007	0	0.0009999999311	0	0	0	1.0
11	-28.3390007	0	0.0009999999311	0	0	0	1.0
[RightHandIndex1]
9	-91.08300018	-5.167999744	22.60099792	-1.05641222	4.747434616	21.39198112	1.0
10	-91.08300018	-5.167999744	22.60099792	-0.8836643696	4.576856136	19.40182877	1.0
11	-91.08300018	-5.167999744	22.60099792	-0.7702365518	4.444573879	18.65908051	1.0
[RightHandIndex2]
9	-36.76399994	0	0	-0.3896184862	-1.860842705	23.64886475	1.0
10	-36.76399994	0	0	-0.3872442544	-1.855431795	23.5758419	1.0
11	-36.76399994	0	0	-0.38739416	-1.855792046	23.58068848	1.0
[RightHandIndex3]
9	-28.83100128	0	0	-0.07603249699	-0.8365418911	10.38587284	1.0
10	-28.83100128	0	0	-0.07497335225	-0.830730021	10.31293869	1.0
11	-28.83100128	0	0	-0.07504241168	-0.8311126828	10.31777	1.0
[RightHandIndex4]
9	-23.92700005	0	0	0	0	0	1.0
10	-23.92700005	0	0	0	0	0	1.0
11	-23.92700005	0	0	0	0	0	1.0
[RightHandThumb1]
9	-24.64799881	-15.72700024	26.82600021	12.78110313	-2.167885065	-4.410644054	1.0
10	-24.64799881	-15.72700024	26.82600021	12.78110313	-2.167885065	-4.410644054	1.0
11	-24.64799881	-15.72700024	26.82600021	12.78110313	-2.167885065	-4.410644054	1.0
[RightHandThumb2]
9	-32.29800034	-18.64699936	18.64699936	7.916321278	-17.41915894	-9.744462967	1.0
10	-32.29800034	-18.64699936	18.64699936	7.591880322	-17.37528992	-10.05849075	1.0
11	-32.29800034	-18.64699936	18.64699936	7.810054302	-16.02227974	-10.01032162	1.0
[RightHandThumb3]
9	-26.52600098	-15.31399918	15.31399918	-15.54055119	-4.717673779	-11.28650284	1.0
10	-26.52600098	-15.31399918	15.31399918	-15.5144062	-4.779566765	-11.26696205	1.0
11	-26.52600098	-15.31399918	15.31399918	-15.51310349	-4.782637119	-11.26598549	1.0
[RightHandThumb4]
9	-19.54599953	-11.28499985	11.28499985	0	0	0	1.0
10	-19.54599953	-11.28499985	11.28499985	0	0	0	1.0
11	-19.54599953	-11.28499985	11.28499985	0	0	0	1.0
[LeftUpLeg]
9	82.07800293	-67.51699829	-15.99599934	-35.67522049	5.803245068	-1.268433332	1.0
10	82.07800293	-67.51699829	-15.99599934	-35.22323608	5.294973373	-1.8013978	1.0
11	82.07800293	-67.51699829	-15.99599934	-37.77017975	5.616327286	-1.644738674	1.0
[LeftLeg]
9	0	-443.7049866	2.845999956	9.606389046	-3.533039331	0.8860309124	1.0
10	0	-443.7049866	2.845999956	16.21209145	-3.749682426	-0.3967226744	1.0
11	0	-443.7049866	2.845999956	29.98194695	-2.902409792	-2.753565311	1.0
[LeftFoot]
9	0	-444.2789917	-29.8219986	12.05574322	0.1628495753	-0.8979545832	1.0
10	0	-444.2789917	-29.8219986	16.10746002	-0.09785191715	1.642132759	1.0
11	0	-444.2789917	-29.8219986	6.695385933	-0.1062163338	3.41575098	1.0
[LeftToeBase]
9	0	-87.28699493	107.1060028	-10.15783787	2.874123766e-07	-5.131050216e-07	1.0
10	0	-87.28699493	107.1060028	-9.156375885	-4.292673452e-07	-1.540320937e-07	1.0
11	0	-87.28699493	107.1060028	-7.286311626	2.195469051e-07	-9.889146213e-07	1.0
[RightUpLeg]
9	-82.07800293	-67.51699829	-15.99599934	18.72711945	-15.47152996	-3.651753187	1.0
10	-82.07800293	-67.51699829	-15.99599934	20.32209778	-15.79455376	-5.238595486	1.0
11	-82.07800293	-67.51699829	-15.99599934	14.08494377	-14.831357	-6.035958767	1.0
[RightLeg]
9	0	-443.7049866	2.861999989	10.7700901	4.46615839	-5.742050171	1.0
10	0	-443.7049866	2.861999989	14.92009068	7.782157421	-5.153577805	1.0
11	0	-443.7049866	2.861999989	32.74712372	10.79591656	-1.533947349	1.0
[RightFoot]
9	0	-444.2770081	-29.83799934	-11.82466793	11.27330589	4.28271389	1.0
10	0	-444.2770081	-29.83799934	-1.602329493	5.936948299	7.683952332	1.0
11	0	-444.2770081	-29.83799934	7.490619183	-0.7956824303	11.07117271	1.0
[RightToeBase]
9	0	-87.28699493	107.1060028	-18.61341858	0.07117959112	0.3544301093	1.0
10	0	-87.28699493	107.1060028	-26.13837051	-0.1196840927	-0.2918712795	1.0
11	0	-87.28699493	107.1060028	-24.55507851	-0.220243901	-0.4890233278	1.0
[EndOfFile]
